<svg xmlns="http://www.w3.org/2000/svg" viewBox="0 0 800 600" role="img" aria-label="SANDO F1">
  <defs><radialGradient id="bg" cx="30%" cy="25%" r="85%"><stop offset="0%" stop-color="#ffffff"/><stop offset="100%" stop-color="#FFEDE4"/></radialGradient></defs>
  <rect width="800" height="600" fill="url(#bg)"/>
  <g transform="translate(170,120)" fill="none" stroke="#E2551F" stroke-width="10" stroke-linecap="round" stroke-linejoin="round">
    <circle cx="80" cy="320" r="90"/><circle cx="430" cy="320" r="90"/>
    <path d="M80 320 L230 320 L300 170 L430 320" stroke="#FF6B35" stroke-width="16"/>
    <path d="M230 320 L260 150 L360 150" stroke="#FF6B35" stroke-width="16"/>
    <path d="M260 150 L210 90 L170 90" stroke="#E2551F"/>
    <path d="M360 150 L400 90 L440 90" stroke="#E2551F"/>
    <path d="M300 170 q40 90 130 80 q90 -6 0 70" stroke="#FF6B35" stroke-width="14"/>
    <circle cx="260" cy="150" r="14" fill="#E2551F"/>
  </g>
  <rect x="40" y="510" width="200" height="44" rx="22" fill="#FF6B35"/>
  <text x="140" y="540" text-anchor="middle" font-family="Arial,Helvetica,sans-serif" font-size="22" font-weight="700" fill="#fff" letter-spacing="1">SANDO</text>
  <text x="40" y="58" font-family="Arial,Helvetica,sans-serif" font-size="22" font-weight="800" fill="#E2551F" letter-spacing="2">SANDO F1</text>
</svg>